<svg xmlns="http://www.w3.org/2000/svg" xmlns:xlink="http://www.w3.org/1999/xlink" viewBox="0 0 130 29.194" overflow="visible"><g><path d="M 54.632 19.009 C 54.632 22.249 51.507 24.368 48.318 24.368 L 37.952 24.368 L 37.952 5.102 L 47.488 5.102 C 51.124 5.102 53.772 6.859 53.772 10.401 C 53.78 11.257 53.516 12.092 53.017 12.787 C 52.504 13.499 51.789 14.039 50.965 14.338 C 50.965 14.375 54.632 15.157 54.632 19.009 Z M 42.927 9.099 L 42.896 12.676 L 46.628 12.676 C 47.121 12.683 47.6 12.503 47.965 12.17 C 48.321 11.849 48.529 11.395 48.541 10.916 L 48.541 10.707 C 48.527 10.483 48.466 10.263 48.362 10.06 C 48.258 9.857 48.113 9.676 47.935 9.526 C 47.758 9.377 47.551 9.263 47.326 9.189 C 47.102 9.117 46.864 9.086 46.628 9.1 L 42.927 9.1 Z M 46.659 20.335 C 48.158 20.335 49.242 19.826 49.242 18.427 C 49.242 17.307 48.382 16.549 46.563 16.549 L 42.959 16.549 L 42.959 20.336 L 46.659 20.336 Z M 65.604 4.618 C 71.506 4.618 74.918 9.038 74.918 14.702 C 74.918 20.366 71.473 24.786 65.604 24.786 C 59.736 24.786 56.291 20.335 56.291 14.702 C 56.291 9.069 59.736 4.617 65.604 4.617 Z M 69.943 14.702 C 69.943 11.703 68.475 9.251 65.604 9.251 C 62.734 9.251 61.299 11.674 61.299 14.702 C 61.299 17.731 62.735 20.184 65.604 20.184 C 68.475 20.184 69.943 17.761 69.943 14.702 Z M 92.077 18.487 C 92.077 22.697 88.027 24.756 84.231 24.756 C 79.862 24.756 77.597 23.182 75.811 21.152 L 79.033 18.124 C 80.404 19.79 82.19 20.607 84.167 20.607 C 85.826 20.607 86.91 19.851 86.91 18.7 C 86.91 17.489 85.922 17.094 83.274 16.58 L 82.573 16.429 C 79.383 15.792 76.768 14.096 76.768 10.643 C 76.768 6.859 80.021 4.588 84.295 4.588 C 87.931 4.588 90.259 6.071 91.694 7.615 L 88.537 10.583 C 88.006 10.026 87.367 9.583 86.66 9.28 C 85.947 8.972 85.174 8.808 84.391 8.797 C 83.242 8.797 81.934 9.311 81.934 10.583 C 81.934 11.764 83.307 12.188 85.028 12.522 L 85.731 12.673 C 88.632 13.249 92.141 14.096 92.077 18.487 Z M 107.068 18.009 L 111.183 20.638 C 109.109 23.484 107.195 24.817 103.177 24.817 C 97.467 24.817 93.8 20.335 93.8 14.611 C 93.8 9.16 97.117 4.648 103.24 4.648 C 106.589 4.648 109.013 5.89 111.055 8.827 L 106.972 11.401 C 106.143 10.038 105.09 9.251 103.304 9.251 C 101.04 9.251 98.871 11.159 98.871 14.581 C 98.871 18.427 101.199 20.184 103.432 20.184 C 105.345 20.184 106.239 19.275 107.068 18.009 Z M 130 5.102 L 130 24.363 L 124.673 24.363 L 124.673 16.761 L 118.518 16.761 L 118.518 24.363 L 113.192 24.363 L 113.192 5.102 L 118.518 5.102 L 118.518 12.189 L 124.673 12.189 L 124.673 5.102 Z" fill="rgb(175,175,175)"></path><path d="M 15.372 0 C 12.332 0 9.36 0.856 6.832 2.461 C 4.304 4.064 2.333 6.343 1.17 9.011 C 0.008 11.663 -0.298 14.611 0.295 17.445 C 0.888 20.276 2.353 22.877 4.502 24.918 C 6.652 26.96 9.392 28.35 12.374 28.914 C 15.356 29.477 18.447 29.187 21.256 28.083 C 24.065 26.978 26.466 25.107 28.155 22.706 C 29.845 20.306 30.746 17.485 30.746 14.597 C 30.746 10.726 29.127 7.012 26.243 4.276 C 23.36 1.538 19.451 0 15.373 0 Z M 15.372 27.831 C 12.616 27.831 9.921 27.055 7.629 25.6 C 5.337 24.147 3.55 22.08 2.496 19.662 C 1.443 17.257 1.165 14.585 1.703 12.015 C 2.241 9.448 3.568 7.09 5.517 5.239 C 7.467 3.388 9.95 2.128 12.654 1.617 C 15.355 1.107 18.146 1.368 20.706 2.371 C 23.254 3.371 25.43 5.068 26.962 7.244 C 28.494 9.421 29.311 11.979 29.311 14.597 C 29.31 18.107 27.841 21.472 25.227 23.954 C 22.614 26.435 19.069 27.83 15.373 27.831 Z" fill="rgb(175,175,175)"></path><path d="M 21.615 5.422 L 20.562 5.422 L 20.562 10.418 L 10.005 10.418 L 10.005 5.422 L 8.921 5.422 C 7.349 6.399 6.045 7.753 5.127 9.36 C 4.229 10.938 3.756 12.722 3.753 14.537 C 3.753 16.344 4.226 18.122 5.127 19.713 C 6.045 21.321 7.349 22.674 8.921 23.652 L 10.005 23.652 L 10.005 18.662 L 20.562 18.662 L 20.562 23.658 L 21.615 23.658 C 23.187 22.681 24.492 21.327 25.41 19.72 C 26.309 18.142 26.783 16.358 26.786 14.543 C 26.786 12.736 26.314 10.957 25.411 9.366 C 24.493 7.759 23.188 6.405 21.616 5.428 L 21.616 5.422 Z M 8.538 21.69 C 7.557 20.866 6.75 19.854 6.165 18.713 C 4.999 16.447 4.834 13.796 5.711 11.403 C 6.151 10.207 6.827 9.112 7.7 8.183 C 7.963 7.904 8.243 7.639 8.538 7.39 Z M 20.562 17.269 L 10.005 17.269 L 10.005 11.781 L 20.562 11.781 Z M 21.997 21.659 L 21.997 7.389 C 22.976 8.221 23.779 9.239 24.359 10.385 C 25.515 12.662 25.665 15.32 24.772 17.713 C 24.325 18.91 23.64 20.004 22.76 20.929 C 22.518 21.183 22.265 21.425 21.998 21.653 L 21.998 21.659 Z" fill="rgb(175,175,175)"></path></g></svg>